{
    "asset" : {
        "generator" : "Khronos glTF Blender I/O v1.2.75",
        "version" : "2.0"
    },
    "scene" : 0,
    "scenes" : [
        {
            "name" : "Scene",
            "nodes" : [
                0,
                1,
                2
            ]
        }
    ],
    "nodes" : [
        {
            "name" : "Empty"
        },
        {
            "mesh" : 0,
            "name" : "Cone",
            "rotation" : [
                0,
                0,
                -0.9999998807907104,
                0.0004910985589958727
            ],
            "translation" : [
                0,
                -0.4462388753890991,
                0
            ]
        },
        {
            "mesh" : 1,
            "name" : "Cone.001",
            "rotation" : [
                0,
                0,
                -0.9999998807907104,
                0.0004910985589958727
            ],
            "scale" : [
                2.956261396408081,
                3.488250494003296,
                2.892401695251465
            ],
            "translation" : [
                0,
                -1.5425196886062622,
                0
            ]
        }
    ],
    "materials" : [
        {
            "alphaMode" : "BLEND",
            "doubleSided" : true,
            "emissiveFactor" : [
                0.18578070402145386,
                0.1697346270084381,
                0.15559324622154236
            ],
            "name" : "Material.001",
            "pbrMetallicRoughness" : {
                "metallicFactor" : 0,
                "roughnessFactor" : 0
            }
        }
    ],
    "meshes" : [
        {
            "name" : "Cone",
            "primitives" : [
                {
                    "attributes" : {
                        "POSITION" : 0,
                        "NORMAL" : 1,
                        "TEXCOORD_0" : 2
                    },
                    "indices" : 3,
                    "material" : 0
                }
            ]
        },
        {
            "name" : "Cone.002",
            "primitives" : [
                {
                    "attributes" : {
                        "POSITION" : 4,
                        "NORMAL" : 5,
                        "TEXCOORD_0" : 6
                    },
                    "indices" : 7,
                    "material" : 0
                }
            ]
        }
    ],
    "accessors" : [
        {
            "bufferView" : 0,
            "componentType" : 5126,
            "count" : 128,
            "max" : [
                1,
                -0.44377756118774414,
                1
            ],
            "min" : [
                -1,
                -1,
                -1
            ],
            "type" : "VEC3"
        },
        {
            "bufferView" : 1,
            "componentType" : 5126,
            "count" : 128,
            "type" : "VEC3"
        },
        {
            "bufferView" : 2,
            "componentType" : 5126,
            "count" : 128,
            "type" : "VEC2"
        },
        {
            "bufferView" : 3,
            "componentType" : 5123,
            "count" : 192,
            "type" : "SCALAR"
        },
        {
            "bufferView" : 4,
            "componentType" : 5126,
            "count" : 128,
            "max" : [
                0.8009701371192932,
                -0.44377756118774414,
                0.8012973070144653
            ],
            "min" : [
                -0.8003036975860596,
                -0.6027494668960571,
                -0.7999773025512695
            ],
            "type" : "VEC3"
        },
        {
            "bufferView" : 5,
            "componentType" : 5126,
            "count" : 128,
            "type" : "VEC3"
        },
        {
            "bufferView" : 6,
            "componentType" : 5126,
            "count" : 128,
            "type" : "VEC2"
        },
        {
            "bufferView" : 7,
            "componentType" : 5123,
            "count" : 192,
            "type" : "SCALAR"
        }
    ],
    "bufferViews" : [
        {
            "buffer" : 0,
            "byteLength" : 1536,
            "byteOffset" : 0
        },
        {
            "buffer" : 0,
            "byteLength" : 1536,
            "byteOffset" : 1536
        },
        {
            "buffer" : 0,
            "byteLength" : 1024,
            "byteOffset" : 3072
        },
        {
            "buffer" : 0,
            "byteLength" : 384,
            "byteOffset" : 4096
        },
        {
            "buffer" : 0,
            "byteLength" : 1536,
            "byteOffset" : 4480
        },
        {
            "buffer" : 0,
            "byteLength" : 1536,
            "byteOffset" : 6016
        },
        {
            "buffer" : 0,
            "byteLength" : 1024,
            "byteOffset" : 7552
        },
        {
            "buffer" : 0,
            "byteLength" : 384,
            "byteOffset" : 8576
        }
    ],
    "buffers" : [
        {
            "byteLength" : 8960,
            "uri" : "data:application/octet-stream;base64,"
        }
    ]
}
