{
    "asset" : {
        "generator" : "Khronos glTF Blender I/O v1.6.16",
        "version" : "2.0"
    },
    "scene" : 0,
    "scenes" : [
        {
            "extras" : {
                "glTF2ExportSettings" : {
                    "export_animations" : 1,
                    "export_apply" : 1,
                    "export_current_frame" : 1,
                    "export_draco_mesh_compression_enable" : 0,
                    "export_extras" : 1,
                    "export_format" : "GLTF_EMBEDDED",
                    "export_image_format" : "AUTO",
                    "export_tangents" : 1,
                    "export_yup" : 1
                },
                "blenderkitUI" : {
                    "assetbar_on" : 0,
                    "turn_off" : 0,
                    "asset_type" : 0,
                    "dragging" : 0,
                    "margin" : 0,
                    "thumb_size" : 96,
                    "bar_x" : 78,
                    "bar_end" : 101,
                    "bar_width" : 1217,
                    "wcount" : 11,
                    "hcount" : 1,
                    "bar_height" : 96,
                    "bar_y" : 660,
                    "reports_y" : 464,
                    "reports_x" : 78,
                    "rating_x" : 78,
                    "rating_y" : 564,
                    "scrolloffset" : 0,
                    "mouse_x" : 786,
                    "mouse_y" : 725,
                    "has_hit" : 0,
                    "active_index" : -3,
                    "draw_drag_image" : 0,
                    "draw_snapped_bounds" : 0,
                    "draw_tooltip" : 0,
                    "drawoffset" : 35,
                    "tooltip" : ""
                },
                "SMR" : {
                    "subscribed" : 1,
                    "activation_exception" : 0,
                    "SMR_path" : "E:\\BLENDER ADD ONS\\Smudgr Pro - 1 Click Photorealism Grafixfather.com\\Smudgr Pro - 1 Click Photorealism\\SMR_Files_V4\\SMR_Files_V4\\",
                    "previews_dir_smudge" : "",
                    "previews_list_smudge" : [
                        "\\other\\Dust1_SMUDGR_1K.jpg",
                        "\\other\\Dust2_SMUDGR_1K.jpg",
                        "\\smudges\\Fingerprints1_SMUDGR_1K.jpg",
                        "\\smudges\\Fingerprints2_SMUDGR_1K.jpg",
                        "\\smudges\\Fingerprints3_SMUDGR_1K.jpg",
                        "\\smudges\\Fingerprints5_SMUDGR_1K.jpg",
                        "\\smudges\\Fingerprints6_SMUDGR_1K.jpg",
                        "\\smudges\\Glasses1_SMUDGR_1K.jpg",
                        "\\smudges\\Handprints1_SMUDGR_1K.jpg",
                        "\\smudges\\Handprints2_SMUDGR_1K.jpg",
                        "\\smudges\\Smudges1_SMUDGR_1K.jpg",
                        "\\smudges\\Smudges2_SMUDGR_1K.jpg",
                        "\\stains\\Liquid1_SMUDGR_1K.jpg",
                        "\\stains\\Liquid2_SMUDGR_1K.jpg",
                        "\\stains\\Liquid3_SMUDGR_1K.jpg",
                        "\\stains\\Stains1_SMUDGR_1K.jpg",
                        "\\stains\\Stains2_SMUDGR_1K.jpg",
                        "\\wipes\\Dust3_SMUDGR_1K.jpg",
                        "\\wipes\\Dust4_SMUDGR_1K.jpg",
                        "\\wipes\\Fingerprints4_SMUDGR_1K.jpg",
                        "\\wipes\\Wipes1_SMUDGR_1K.jpg",
                        "\\wipes\\Wipes2_SMUDGR_1K.jpg",
                        "\\wipes\\Wipes3_SMUDGR_1K.jpg",
                        "\\wipes\\Wipes4_SMUDGR_1K.jpg",
                        "\\wipes\\Wipes5_SMUDGR_1K.jpg"
                    ],
                    "SMR_path_smudge" : "\\other\\Dust1_SMUDGR_1K.jpg",
                    "previews_dir_scratch" : "",
                    "previews_list_scratch" : [
                        "\\Scratches_1_heavy_1K.png",
                        "\\Scratches_1_light_1K.png",
                        "\\Scratches_2_Heavy_1K.png",
                        "\\Scratches_2_Light_1K.png",
                        "\\Scratches_3_Heavy_1K.png",
                        "\\Scratches_3_Light_1K.png",
                        "\\Scratches_4_Heavy_1K.png",
                        "\\Scratches_4_Light_1K.png",
                        "\\Scratches_5_Heavy_1K.png",
                        "\\Scratches_5_Light_1K.png",
                        "\\Scratches_6_VAR1_1K.png",
                        "\\Scratches_6_VAR2_1K.png",
                        "\\Scratches_7_1K.png",
                        "\\Scratches_8_1K.png",
                        "\\Scratches_9_1K.png"
                    ],
                    "SMR_path_scratch" : "\\Scratches_1_heavy_1K.png",
                    "previews_dir_dust" : "",
                    "previews_list_dust" : [
                        "\\SMR_Dust1_1K.jpg",
                        "\\SMR_Dust2_1K.jpg",
                        "\\SMR_Dust3_1K.jpg",
                        "\\SMR_Dust4_1K.jpg",
                        "\\SMR_Dust5_1K.jpg",
                        "\\SMR_Dust6_1K.jpg",
                        "\\SMR_Dust7_1K.jpg"
                    ],
                    "SMR_path_dust" : "\\SMR_Dust1_1K.jpg",
                    "previews_dir_droplets" : "",
                    "previews_list_droplets" : [
                        "\\Droplet1_Height.png",
                        "\\Droplet2_Height.png",
                        "\\Droplet3_Height.png"
                    ],
                    "SMR_path_droplets" : "\\Droplet1_Height.png",
                    "is_SMR_slot" : 0,
                    "has_dust" : 0,
                    "has_smudge" : 0,
                    "has_droplets" : 0,
                    "has_scratch" : 0,
                    "has_bake" : 0,
                    "inf_smudge_int" : 0,
                    "inf_smudge_bcm" : 0,
                    "inf_scratch_int" : 0,
                    "inf_scratch_bcm" : 0,
                    "wear_cavity" : 0,
                    "wear_edge" : 0,
                    "dust_at" : 0,
                    "smudge_at" : 0,
                    "scratch_at" : 0,
                    "inf_dust1" : 0,
                    "inf_dust_inf" : 0,
                    "inf_droplets" : 0,
                    "SMR_active_mat" : "Material.006",
                    "is_SMR_object" : 0
                },
                "C_Slots_settings" : {},
                "gscatter" : {},
                "flip_fluid_material_library" : {
                    "library_path" : "C:\\Users\\Admin\\AppData\\Roaming\\Blender Foundation\\Blender\\2.93\\scripts\\addons\\flip_fluids_addon\\materials\\material_library",
                    "material_list" : [
                        {
                            "name" : "FF Apple Juice",
                            "description" : "",
                            "path" : "C:\\Users\\Admin\\AppData\\Roaming\\Blender Foundation\\Blender\\2.93\\scripts\\addons\\flip_fluids_addon\\materials\\material_library\\surface\\FF Apple Juice.blend",
                            "type" : 0,
                            "icon_id" : 1341,
                            "imported_icon_id" : 1342
                        },
                        {
                            "name" : "FF Beer",
                            "description" : "",
                            "path" : "C:\\Users\\Admin\\AppData\\Roaming\\Blender Foundation\\Blender\\2.93\\scripts\\addons\\flip_fluids_addon\\materials\\material_library\\surface\\FF Beer.blend",
                            "type" : 0,
                            "icon_id" : 1343,
                            "imported_icon_id" : 1344
                        },
                        {
                            "name" : "FF Blood",
                            "description" : "",
                            "path" : "C:\\Users\\Admin\\AppData\\Roaming\\Blender Foundation\\Blender\\2.93\\scripts\\addons\\flip_fluids_addon\\materials\\material_library\\surface\\FF Blood.blend",
                            "type" : 0,
                            "icon_id" : 1345,
                            "imported_icon_id" : 1346
                        },
                        {
                            "name" : "FF Caramel",
                            "description" : "",
                            "path" : "C:\\Users\\Admin\\AppData\\Roaming\\Blender Foundation\\Blender\\2.93\\scripts\\addons\\flip_fluids_addon\\materials\\material_library\\surface\\FF Caramel.blend",
                            "type" : 0,
                            "icon_id" : 1347,
                            "imported_icon_id" : 1348
                        },
                        {
                            "name" : "FF Chocolate",
                            "description" : "",
                            "path" : "C:\\Users\\Admin\\AppData\\Roaming\\Blender Foundation\\Blender\\2.93\\scripts\\addons\\flip_fluids_addon\\materials\\material_library\\surface\\FF Chocolate.blend",
                            "type" : 0,
                            "icon_id" : 1349,
                            "imported_icon_id" : 1350
                        },
                        {
                            "name" : "FF Coffee",
                            "description" : "",
                            "path" : "C:\\Users\\Admin\\AppData\\Roaming\\Blender Foundation\\Blender\\2.93\\scripts\\addons\\flip_fluids_addon\\materials\\material_library\\surface\\FF Coffee.blend",
                            "type" : 0,
                            "icon_id" : 1351,
                            "imported_icon_id" : 1352
                        },
                        {
                            "name" : "FF Copper",
                            "description" : "",
                            "path" : "C:\\Users\\Admin\\AppData\\Roaming\\Blender Foundation\\Blender\\2.93\\scripts\\addons\\flip_fluids_addon\\materials\\material_library\\surface\\FF Copper.blend",
                            "type" : 0,
                            "icon_id" : 1353,
                            "imported_icon_id" : 1354
                        },
                        {
                            "name" : "FF Milk",
                            "description" : "",
                            "path" : "C:\\Users\\Admin\\AppData\\Roaming\\Blender Foundation\\Blender\\2.93\\scripts\\addons\\flip_fluids_addon\\materials\\material_library\\surface\\FF Milk.blend",
                            "type" : 0,
                            "icon_id" : 1355,
                            "imported_icon_id" : 1356
                        },
                        {
                            "name" : "FF Orange Juice",
                            "description" : "",
                            "path" : "C:\\Users\\Admin\\AppData\\Roaming\\Blender Foundation\\Blender\\2.93\\scripts\\addons\\flip_fluids_addon\\materials\\material_library\\surface\\FF Orange Juice.blend",
                            "type" : 0,
                            "icon_id" : 1357,
                            "imported_icon_id" : 1358
                        },
                        {
                            "name" : "FF Water (clear)",
                            "description" : "",
                            "path" : "C:\\Users\\Admin\\AppData\\Roaming\\Blender Foundation\\Blender\\2.93\\scripts\\addons\\flip_fluids_addon\\materials\\material_library\\surface\\FF Water (clear).blend",
                            "type" : 0,
                            "icon_id" : 1359,
                            "imported_icon_id" : 1360
                        },
                        {
                            "name" : "FF Water (iced)",
                            "description" : "",
                            "path" : "C:\\Users\\Admin\\AppData\\Roaming\\Blender Foundation\\Blender\\2.93\\scripts\\addons\\flip_fluids_addon\\materials\\material_library\\surface\\FF Water (iced).blend",
                            "type" : 0,
                            "icon_id" : 1361,
                            "imported_icon_id" : 1362
                        },
                        {
                            "name" : "FF Water (ocean 1)",
                            "description" : "",
                            "path" : "C:\\Users\\Admin\\AppData\\Roaming\\Blender Foundation\\Blender\\2.93\\scripts\\addons\\flip_fluids_addon\\materials\\material_library\\surface\\FF Water (ocean 1).blend",
                            "type" : 0,
                            "icon_id" : 1363,
                            "imported_icon_id" : 1364
                        },
                        {
                            "name" : "FF Water (ocean 2)",
                            "description" : "",
                            "path" : "C:\\Users\\Admin\\AppData\\Roaming\\Blender Foundation\\Blender\\2.93\\scripts\\addons\\flip_fluids_addon\\materials\\material_library\\surface\\FF Water (ocean 2).blend",
                            "type" : 0,
                            "icon_id" : 1365,
                            "imported_icon_id" : 1366
                        },
                        {
                            "name" : "FF Water (ocean volumetric)",
                            "description" : "",
                            "path" : "C:\\Users\\Admin\\AppData\\Roaming\\Blender Foundation\\Blender\\2.93\\scripts\\addons\\flip_fluids_addon\\materials\\material_library\\surface\\FF Water (ocean volumetric).blend",
                            "type" : 0,
                            "icon_id" : 1367,
                            "imported_icon_id" : 1368
                        },
                        {
                            "name" : "FF Wax",
                            "description" : "",
                            "path" : "C:\\Users\\Admin\\AppData\\Roaming\\Blender Foundation\\Blender\\2.93\\scripts\\addons\\flip_fluids_addon\\materials\\material_library\\surface\\FF Wax.blend",
                            "type" : 0,
                            "icon_id" : 1369,
                            "imported_icon_id" : 1370
                        },
                        {
                            "name" : "FF Wine Red",
                            "description" : "",
                            "path" : "C:\\Users\\Admin\\AppData\\Roaming\\Blender Foundation\\Blender\\2.93\\scripts\\addons\\flip_fluids_addon\\materials\\material_library\\surface\\FF Wine Red.blend",
                            "type" : 0,
                            "icon_id" : 1371,
                            "imported_icon_id" : 1372
                        },
                        {
                            "name" : "FF Bubble",
                            "description" : "",
                            "path" : "C:\\Users\\Admin\\AppData\\Roaming\\Blender Foundation\\Blender\\2.93\\scripts\\addons\\flip_fluids_addon\\materials\\material_library\\whitewater\\FF Bubble.blend",
                            "type" : 1,
                            "icon_id" : 1373,
                            "imported_icon_id" : 1374
                        },
                        {
                            "name" : "FF Foam",
                            "description" : "",
                            "path" : "C:\\Users\\Admin\\AppData\\Roaming\\Blender Foundation\\Blender\\2.93\\scripts\\addons\\flip_fluids_addon\\materials\\material_library\\whitewater\\FF Foam.blend",
                            "type" : 1,
                            "icon_id" : 1375,
                            "imported_icon_id" : 1376
                        },
                        {
                            "name" : "FF Spray",
                            "description" : "",
                            "path" : "C:\\Users\\Admin\\AppData\\Roaming\\Blender Foundation\\Blender\\2.93\\scripts\\addons\\flip_fluids_addon\\materials\\material_library\\whitewater\\FF Spray.blend",
                            "type" : 1,
                            "icon_id" : 1377,
                            "imported_icon_id" : 1378
                        }
                    ]
                },
                "blenderkit_models" : {
                    "is_searching" : 0,
                    "report" : "Found 8494 results. ",
                    "search_error" : 0
                },
                "uuid" : "db19753b-8759-4c82-8462-91c55ed0f2b0"
            },
            "name" : "Scene",
            "nodes" : [
                0
            ]
        }
    ],
    "nodes" : [
        {
            "extras" : {},
            "mesh" : 0,
            "name" : "Plane.001",
            "scale" : [
                1.239272952079773,
                1.2392699718475342,
                1.239272952079773
            ]
        }
    ],
    "animations" : [
        {
            "channels" : [
                {
                    "sampler" : 0,
                    "target" : {
                        "node" : 0,
                        "path" : "rotation"
                    }
                },
                {
                    "sampler" : 1,
                    "target" : {
                        "node" : 0,
                        "path" : "translation"
                    }
                }
            ],
            "name" : "Plane.001Action",
            "samplers" : [
                {
                    "input" : 5,
                    "interpolation" : "LINEAR",
                    "output" : 6
                },
                {
                    "input" : 5,
                    "interpolation" : "LINEAR",
                    "output" : 7
                }
            ]
        }
    ],
    "materials" : [
        {
            "alphaMode" : "BLEND",
            "doubleSided" : true,
            "emissiveFactor" : [
                1,
                1,
                1
            ],
            "emissiveTexture" : {
                "index" : 0
            },
            "extras" : {},
            "name" : "Material.006",
            "pbrMetallicRoughness" : {
                "baseColorTexture" : {
                    "index" : 1
                },
                "metallicFactor" : 0
            }
        }
    ],
    "meshes" : [
        {
            "name" : "Plane.004",
            "primitives" : [
                {
                    "attributes" : {
                        "POSITION" : 0,
                        "NORMAL" : 1,
                        "TANGENT" : 2,
                        "TEXCOORD_0" : 3
                    },
                    "indices" : 4,
                    "material" : 0
                }
            ]
        }
    ],
    "textures" : [
        {
            "sampler" : 0,
            "source" : 0
        },
        {
            "sampler" : 0,
            "source" : 0
        }
    ],
    "images" : [
        {
            "bufferView" : 5,
            "mimeType" : "image/png",
            "name" : "kisspng-magic-circle-deviantart-drawing-magic-5abb2a2bc7c497.4616600315222154678183"
        }
    ],
    "accessors" : [
        {
            "bufferView" : 0,
            "componentType" : 5126,
            "count" : 4,
            "max" : [
                1,
                0,
                1
            ],
            "min" : [
                -1,
                0,
                -1
            ],
            "type" : "VEC3"
        },
        {
            "bufferView" : 1,
            "componentType" : 5126,
            "count" : 4,
            "type" : "VEC3"
        },
        {
            "bufferView" : 2,
            "componentType" : 5126,
            "count" : 4,
            "type" : "VEC4"
        },
        {
            "bufferView" : 3,
            "componentType" : 5126,
            "count" : 4,
            "type" : "VEC2"
        },
        {
            "bufferView" : 4,
            "componentType" : 5123,
            "count" : 6,
            "type" : "SCALAR"
        },
        {
            "bufferView" : 6,
            "componentType" : 5126,
            "count" : 121,
            "max" : [
                5
            ],
            "min" : [
                0
            ],
            "type" : "SCALAR"
        },
        {
            "bufferView" : 7,
            "componentType" : 5126,
            "count" : 121,
            "type" : "VEC4"
        },
        {
            "bufferView" : 8,
            "componentType" : 5126,
            "count" : 121,
            "type" : "VEC3"
        }
    ],
    "bufferViews" : [
        {
            "buffer" : 0,
            "byteLength" : 48,
            "byteOffset" : 0
        },
        {
            "buffer" : 0,
            "byteLength" : 48,
            "byteOffset" : 48
        },
        {
            "buffer" : 0,
            "byteLength" : 64,
            "byteOffset" : 96
        },
        {
            "buffer" : 0,
            "byteLength" : 32,
            "byteOffset" : 160
        },
        {
            "buffer" : 0,
            "byteLength" : 12,
            "byteOffset" : 192
        },
        {
            "buffer" : 0,
            "byteLength" : 694213,
            "byteOffset" : 204
        },
        {
            "buffer" : 0,
            "byteLength" : 484,
            "byteOffset" : 694420
        },
        {
            "buffer" : 0,
            "byteLength" : 1936,
            "byteOffset" : 694904
        },
        {
            "buffer" : 0,
            "byteLength" : 1452,
            "byteOffset" : 696840
        }
    ],
    "samplers" : [
        {
            "magFilter" : 9729,
            "minFilter" : 9987
        }
    ],
    "buffers" : [
        {
            "byteLength" : 698292,
            "uri" : "data:application/octet-stream;base64,"
        }
    ]
}
